<svg viewBox="0 0 75 26.2185" xmlns="http://www.w3.org/2000/svg" xmlns:xlink="http://www.w3.org/1999/xlink" width="75.000000" height="26.218475" fill="none" customFrame="#000000">
	<g id="条形码">
		<rect id="矩形 41" width="0.932836" height="26.170025" x="0.000000" y="0.000000" fill="rgb(0,0,0)" />
		<rect id="矩形 44" width="1.554726" height="26.170025" x="6.405518" y="0.000000" fill="rgb(0,0,0)" />
		<rect id="矩形 45" width="2.425374" height="26.170025" x="11.131836" y="0.000000" fill="rgb(0,0,0)" />
		<rect id="矩形 49" width="1.554726" height="26.170025" x="20.460205" y="0.000000" fill="rgb(0,0,0)" />
		<rect id="矩形 50" width="1.554726" height="26.170025" x="23.072144" y="0.000000" fill="rgb(0,0,0)" />
		<rect id="矩形 51" width="3.171642" height="26.170025" x="25.310913" y="0.000000" fill="rgb(0,0,0)" />
		<rect id="矩形 52" width="0.932836" height="26.170025" x="29.166626" y="0.000000" fill="rgb(0,0,0)" />
		<rect id="矩形 56" width="0.932836" height="26.170025" x="37.810913" y="0.000000" fill="rgb(0,0,0)" />
		<rect id="矩形 58" width="2.300995" height="26.170025" x="41.791016" y="0.000000" fill="rgb(0,0,0)" />
		<rect id="矩形 59" width="0.932836" height="26.170025" x="44.776123" y="0.000000" fill="rgb(0,0,0)" />
		<rect id="矩形 62" width="0.932836" height="26.170025" x="53.544800" y="0.000000" fill="rgb(0,0,0)" />
		<rect id="矩形 66" width="2.300995" height="26.170025" x="61.442749" y="0.000000" fill="rgb(0,0,0)" />
		<rect id="矩形 64" width="0.932836" height="26.170025" x="58.271118" y="0.000000" fill="rgb(0,0,0)" />
		<rect id="矩形 63" width="0.932836" height="26.170025" x="55.907959" y="0.000000" fill="rgb(0,0,0)" />
		<rect id="矩形 61" width="0.932836" height="26.170025" x="50.373169" y="0.000000" fill="rgb(0,0,0)" />
		<rect id="矩形 60" width="0.932836" height="26.170025" x="46.393066" y="0.000000" fill="rgb(0,0,0)" />
		<rect id="矩形 57" width="0.932836" height="26.170025" x="39.427856" y="0.000000" fill="rgb(0,0,0)" />
		<rect id="矩形 55" width="0.932836" height="26.170025" x="36.194092" y="0.000000" fill="rgb(0,0,0)" />
		<rect id="矩形 54" width="1.554726" height="26.170025" x="33.955200" y="0.000000" fill="rgb(0,0,0)" />
		<rect id="矩形 53" width="0.932836" height="26.170025" x="30.783569" y="0.048462" fill="rgb(0,0,0)" />
		<rect id="矩形 48" width="1.554726" height="26.170025" x="17.350708" y="0.000000" fill="rgb(0,0,0)" />
		<rect id="矩形 47" width="1.554726" height="26.170025" x="14.241333" y="0.000000" fill="rgb(0,0,0)" />
		<rect id="矩形 43" width="0.932836" height="26.170025" x="4.788574" y="0.000000" fill="rgb(0,0,0)" />
		<rect id="矩形 46" width="0.932836" height="26.170025" x="8.644287" y="0.000000" fill="rgb(0,0,0)" />
		<rect id="矩形 42" width="0.932836" height="26.170025" x="1.616943" y="0.000000" fill="rgb(0,0,0)" />
		<rect id="矩形 65" width="0.932836" height="26.170025" x="64.552246" y="0.000000" fill="rgb(0,0,0)" />
		<rect id="矩形 67" width="1.554726" height="26.170025" x="66.915405" y="0.000000" fill="rgb(0,0,0)" />
		<rect id="矩形 68" width="1.554726" height="26.170025" x="69.465210" y="0.000000" fill="rgb(0,0,0)" />
		<rect id="矩形 69" width="0.932836" height="26.170025" x="72.450195" y="0.000000" fill="rgb(0,0,0)" />
		<rect id="矩形 70" width="0.932836" height="26.170025" x="74.067139" y="0.000000" fill="rgb(0,0,0)" />
	</g>
</svg>
