<?xml version="1.0" encoding="UTF-8"?>
<svg id="_图层_2" data-name="图层 2" xmlns="http://www.w3.org/2000/svg" viewBox="0 0 1520.91 1010">
  <defs>
    <style>
      .cls-1 {
        fill: #0e100f;
        stroke-width: 0px;
      }
    </style>
  </defs>
  <path class="cls-1" d="m905,931c-19,0-38.21-8.19-47.55-13.08-3.8-1.99-7.33-4.5-10.85-7.01-4.63-3.29-13.04-9.36-17.15-12.32-.98-.71-2.36.05-2.26,1.26.17,2.11.52,4.21,1.05,6.25.93,3.6,2.4,7.03,4.06,10.33,2.8,5.56,6.17,10.84,10.41,15.28,6.31,6.6,14.49,11.19,23.21,13.01l-.69.92c-.2.26-.48.45-.79.53-16.51,4.38-33.6,6.68-50.59,5.52-17.15-1.17-34.21-5.96-49.06-15.1-3.83-2.36-7.52-5.01-10.79-8.18-10.24-9.96-17.71-21.44-21.99-35.42-3.02-9.88-7.3-30.71-8.82-38.27-.24-1.2-1.78-1.58-2.54-.62-2.23,2.8-3.85,6.14-4.69,9.69-.9,3.81-2.81,15.28-1.96,20.21,3.66,21.04,7.53,18.18,8.77,22.33.23.76-.22,1.57-.98,1.81-6.33,2.04-13.87,1.39-30.03-5.61-5.77-2.5-5.76-2.53-11.42-6.92-7.07-5.48-12.99-12.52-17.69-20.32-1.31-2.17-2.51-4.41-3.68-6.68-2.71-5.28-5.2-10.75-6.54-16.59-1.73-7.51-1.5-15.35-.89-23.05l-.56-.82c-1.29,1.52-2.58,3.04-3.87,4.55-1.86,2.19-3.73,4.39-5.48,6.67-3.98,5.19-7.39,10.86-10.14,16.87-2.58,5.62-2.45,11.51-2.49,17.75-.03,4.5,2.28,12.03,5,16,.55.8.16,2.19-.76,1.88l-1.04-.35c-.84-.28-1.61-.74-2.27-1.34-19.83-18.24-40.28-37.87-48.35-64.23-4.91-16.03-4.76-33.22-4.51-50.07.31-20.36.73-40.92,5.43-60.66,4.65-19.52,13.41-37.95,16.08-57.88,0-.04.01-.08.02-.12l.31-1.33-2.44,1.72c-4.45,2.81-9.07,5.35-13.94,7.21-6.46,2.48-13.29,3.74-20.01,5.19-2.64.57-5.3,1.03-7.98,1.36-2.35.29-4.79.43-7.05-.33-2.4-.81-9.51-2.06-4.63-7.38,1.64-1.78,12.23-9.04,13.73-10.71,5.1-5.71,10.59-11.94,12.47-19.68.6-2.48.82-5.06.86-7.62.04-1.97-1.11-8.3-1.66-11.2-.17-.9-1.12-1.41-1.96-1.06-5.64,2.39-20.61,13.93-29.33,13.36q-11.99-.78-18.59-3.45c-6.02-2.43-12.36-6.13-17.41-10.33-6-5-12.53-14.89-12.99-19.31-.09-.82.08-1.66.5-2.35.33-.54,0-.9,1.65-1.17l.25.04c5.29.62,10.59,1.24,15.88,1.86,5.58.65,11.24,1.31,16.79.41,8.33-1.34,15.78-6.04,22.98-10.65,12.54-8.02,25.42-16.35,34.1-28.81,3.97-5.7,6.93-12.09,9.95-18.4,6.34-13.28,13.03-26.47,21.71-38.19,8.67-11.72,19.53-21.06,32.41-27.11l-.02-.13c-17.4-7.86-31.26-22.79-41.44-39.62-10.18-16.83-17.01-35.62-23.62-54.32-3.69-10.45-7.34-20.91-10.71-31.48-9.18-28.8-16.27-58.34-21.2-88.28-.63-3.85-.02-12.07.28-15.53.09-.99.63-1.89,1.47-2.41,12-7.51,24.92-13.37,38.34-17.39,36.35-10.88,75.08-8,112.49-2.39,35.42,5.31,71.92,13.71,99.7,37.49h.14c4.73-4.02,8.16-8.56,12.9-12.58,12.57-10.68,64.44-41.66,76.31-45.56l36.97-10.61c1.38-.4,1.4-2.35.03-2.78-22.12-6.79-43.7-7.36-66.66-11.92-7.02-1.39-14.39-3.57-19.15-9.18s-4.93-19.29.93-23.6c2.04-1.51,11.07-6.18,16-7,12-2,22-3,36,4,12.98,6.49,26.08,17.84,32.01,31.7,1.76,4.13,3.12,8.59,6,11.94,2.86,3.33,7.91,8.27,11.44,2.85.06-.09.1-.18.14-.28.66-1.84,7.42-20.77,7.64-31.48.12-5.81-.57-11.61-1.85-17.27-1.85-8.23-4.37-16.48-9.12-23.3-3.43-4.93-7.84-9.21-12.27-13.16-3.14-2.8-6.4-5.37-10.12-7.23-8.12-4.06-17.81-2.94-26.26.29-8.45,3.24-16.09,8.42-24.16,12.58-7.17,3.7-14.7,6.59-22.24,9.36-7.03,2.58-14.18,5.09-21.6,5.64-7.42.55-15.25-1.05-21.07-5.94-9.75-8.19-10.99-25.38-2.53-35.02,6.92-7.89,11.37-10.74,20.43-15.67,4.23-2.3,10.76-5.77,16.38-8.2,4.09-1.77,8.26-3.07,12.49-4.43,13.69-4.39,16.69-7.39,40.84-9.87,4.48-.46,8.94-1.08,13.43-.84,18.34.99,22.81,2.94,32.85,7.8,5.16,2.49,9.56,5.52,14.74,10.21,16.91,15.33,26.94,33.61,33.72,54.79,1.67,5.21,3.16,10.54,3.44,16.03.53,10.17,3.63,45.54-24.06,52.9l-.03.05c15.26-1.01,30.6-1.27,45.88-.91v-.14c.74-6.72,2.61-12.11,4.5-18.57,5.82-19.96,11.64-39.91,17.46-59.87,5.2-17.82,10.48-35.86,19.71-51.76,6.5-11.21,14.9-21.19,24.68-29.33,10-8.32,22.95-14.67,35.21-10.96,33.32,10.08,97.08,72.14,132.65,115.34,19.44,23.61,38.61,48.13,50.53,76.76,11.92,28.63,15.92,62.28,4.48,91.13l-.05.21c9.64,10.88,16.82,22.02,24.64,34.42,11.21,17.77,20.38,36.88,31.03,55.03,3.72,6.34,8.04,12.94,14.65,15.63l.24.09c17.16,8.48,28.38,13.19,40.64,23.77,4.69,4.05,9.39,8.11,13.58,12.73,19.18,21.17,25.53,51.42,37.63,77.76,2.99,6.5,6.37,12.84,10.69,18.45,4.01,5.22,8.77,9.74,13.61,14.1s9.46,8.28,15.07,10.8c5.61,2.52,12.19,3.3,17.78.74l.15-.04v.09c-3.06,7.13-9.31,13.54-16.22,16.4s-14.07,4.26-21.45,5.18c-6.56.82-15.91,2.11-21.42-1.73l-.05-.04c0,1.48.22,2.96.63,4.38.76,2.61,2.16,4.94,3.63,7.18,3.91,5.94,9.11,11.55,15.71,13.52,0,0-8.82,9.19-34.91,7.32-5.43-.39-10.68-2.11-15.72-4.27-8.37-3.6-16.6-7.81-23.62-13.81-7.5-6.41-13.48-14.8-17.23-24.18-1.67-4.17-2.9-8.51-4.09-12.86-1.53-5.55-2.96-17-2.96-17l-.13.07c-6.26,3.47-13.16,25.94-14.16,32.94-2.28,15.96,10.13,28.32,13,31,10,9,34.51,19.11,45.78,22.96,0,0-9.78,13.04-24.77,16.85-2.76.86-5.6,1.41-8.44,1.96-8.75,1.69-17.76,3.2-26.56,1.77v.14c-.38,16.98,3.67,34.89,10.56,50.25,9.22,20.53,19.59,40.65,25.61,62.46,6.01,21.81,7.32,45.98-1.5,66.7-2.21,5.18-5,10.06-7.83,14.9-3.6,6.16-7.26,12.3-11.46,18.03-15.55,21.22-38.51,36.26-63.44,41.57-7.8,1.66-18.22,2.83-25.08-1.41l.14-.12c2.25-1.18,4.22-2.79,6.44-4.07,15.55-8.98,21.46-18.11,22.55-28.98,3.51-10.63-1-24.4-5.52-34.59l-.12.48c-1.2,13.32-7.88,25.34-15.07,36.36-6.3,9.66-13.21,19.05-21.94,26.31-4.87,4.05-23.12,13.31-37.67,15.81-3.31.57-6.68.61-10.03.29-4.54-.45-9.06-.87-11.59-1.78.87-1.66,10.08-19.35,12.93-28.87,9.02-30.07-1.25-50.35-4.51-61.4-.09-.29-.26-.55-.5-.74l-.83-.66c-.81,13.7-8.72,25.65-16.43,36.72-6.93,9.94-13.97,19.87-22.45,28.37-3.42,3.42-7.05,6.6-10.68,9.77-5.99,5.23-15.66,10.42-22.88,13.55-.06.03-.12.05-.18.06-16.35,4.59-21.6,1.84-21.47,1.84s4.93-14.6,4.67-22.2c-.26-7.57-.61-15.5-4.26-22.02l-.73.54c-.05.04-.11.08-.17.11-30.98,17.36-67.82,21.18-102.39,14.86-34.6-6.33-67.11-22.32-96.58-42.48-3.65-2.49-7.25-5.05-10.86-7.61-4.91-3.49-13.15-11.13-17.05-14.81-.88-.83-2.33-.27-2.42.93-.8,10.68-2.78,47.04,5.7,63.16,7.29,13.85,14.83,21.29,23,23,5.83,1.22,10.79,1.67,16.73,1.89.04,0,.08,0,.11,0l19.7-.76s0,0,0,.01c-4.55,8.86-9.55,13.86-9.55,13.86-10,9-13.95,19-53,19Z"/>
  <path class="cls-1" d="m905,928.08c-14.95-.2-29.71-4.68-43.1-11.18-6-2.92-11.37-6.74-16.78-10.61-4.49-3.21-9.47-8.21-14.55-10.36-5.23-2.22-6.53,3.15-5.93,7.07,1.09,7.16,4.29,13.95,7.99,20.12,7.35,12.25,18.46,21.21,32.5,24.43l-1.75-4.29c-1.19,1.58-7.29,1.97-9.32,2.4-4.37.92-8.77,1.68-13.19,2.25-8.63,1.1-17.37,1.47-26.06.94-15.83-.96-31.61-5.11-45.46-12.93-12.84-7.24-22.96-18.31-29.62-31.44-5.65-11.13-8.04-23.68-10.66-35.79-.86-3.97-2.85-24.76-10.95-16.04-3.77,4.06-5.07,10.09-5.94,15.37s-1.72,10.4-1.16,15.53c.73,6.63,2.36,17.23,7.84,22.09.38.34.8,1.11.98,1.18-.26-.11,2.96-1.67.22-.65,1.62-.6-.82-.5-.53-.4-.6-.21-2.53.43-3.26.47-4.97.25-9.94-1.27-14.57-2.88-7.01-2.44-13.47-5.18-19.29-9.79-6.47-5.13-11.94-11.29-16.34-18.28-4.77-7.57-9.23-16.14-11.01-24.96-.97-4.8-1.14-9.69-.98-14.57.09-2.96,1.18-6.48-.57-9.06-.97-1.43-3.29-2.12-4.59-.59-8.27,9.74-17.86,20.21-21.49,32.8-1.57,5.44-1.8,11.99-1.18,17.59.3,2.71.98,5.39,1.89,7.97.36,1.02,3.26,5.8,3.01,6.49l2.04-2.04s-2.19-1.71-3.01-2.45c-1.23-1.11-2.43-2.25-3.65-3.39-2.84-2.66-5.66-5.34-8.43-8.08-5.53-5.47-10.88-11.14-15.73-17.22-10-12.52-17.43-26.66-20.38-42.51-3.23-17.38-2.22-35.59-1.72-53.17s2-35.95,6.97-53.35c2.58-9.05,5.8-17.9,8.58-26.88,2.58-8.32,3.97-16.72,5.92-25.16.53-2.28-2.08-4.86-4.29-3.3-5.4,3.8-11.21,7.08-17.46,9.29-8.24,2.91-18.46,5.7-27.22,5.97-.7.02-8.11-.27-8.49-1.87-.28-1.19,3.99-3.74,4.62-4.21,3.7-2.77,7.76-5.29,10.86-8.75,4.78-5.34,9.49-11.16,11.67-18.1,1.96-6.27,1.38-12.36.27-18.68-.85-4.87-3.01-8.1-8.2-5.48s-9.59,5.85-14.55,8.45c-10.48,5.5-21.59,4.38-32.1-.51-7.05-3.28-13.75-7.63-18.77-13.63-2.14-2.56-4.07-5.38-5.61-8.35-.64-1.25-.94-2.58-1.52-3.81-.35-.75-1.7-.11-.93-.62.55-.36,3.46.41,4.36.52,8.78,1.03,17.99,2.94,26.85,2.05,7.87-.79,14.97-4.29,21.64-8.35,12.95-7.89,26.57-16.38,36.32-28.21,11.84-14.35,17.54-33.16,27.08-49.03,9.75-16.23,22.19-29.9,39.43-38.22.82-.4,1.56-1.6,1.45-2.52-.49-3.98-8.15-6.01-11.21-8.01-6.09-3.96-11.55-8.81-16.47-14.14-9.57-10.39-16.84-22.64-22.83-35.37-6.8-14.46-12-29.64-17.27-44.71s-10.09-29.75-14.34-44.89-7.96-30.6-11.07-46.09c-1.49-7.42-3.46-15.12-4.01-22.68-.19-2.62-.05-5.28.09-7.89.06-1.13-.04-2.58.24-3.68.65-2.51,2.75-3.39,4.92-4.64,27.7-16.03,59.11-21.94,90.86-21.49,29.33.41,59.37,4.48,87.85,11.52,13.9,3.44,27.6,7.99,40.33,14.61,5.47,2.84,10.75,6.04,15.76,9.63,4.51,3.23,8.01,9.17,13.1,4.61,4.48-4.02,8.2-8.77,12.93-12.52,2.92-2.31,6.02-4.42,9.1-6.5,7.86-5.31,15.91-10.33,24.03-15.23s16.6-9.85,25.08-14.44c5.04-2.73,10.21-5.78,15.69-7.56,11.76-3.81,24.06-6.13,35.7-10.25,1.89-.67,3.66-1.45,4.06-3.7,1.06-5.97-8.75-6.66-12.51-7.55-14.97-3.56-30.33-4.96-45.51-7.31-12.25-1.9-31.65-3.39-32.21-19.43-.16-4.65.86-8.85,4.97-11.29,5.1-3.03,10.56-5.1,16.42-5.97,14.36-2.14,26.85.97,38.95,9.02,5.77,3.84,11.07,8.52,15.43,13.91,4.89,6.05,7.02,12.93,10.54,19.7s14.44,17.01,19.63,6.03c3.63-7.68,5.7-17.23,7.04-25.55,4.22-26.26-8.65-54.27-31.02-68.43-11.73-7.43-25.36-4.96-37.28.69-6.31,2.99-12.2,6.77-18.38,10.01-7.18,3.76-14.74,6.7-22.34,9.48-13.12,4.81-32.76,10.99-42.92-2.81-3.14-4.26-4.47-9.78-4.19-15.01.39-7.18,4.06-12.34,9.07-17.2,8.83-8.56,21.63-14.67,32.94-19.26,9.01-3.65,18.77-6.98,28.16-9.61,21.79-6.11,46.8-7.54,67.45,2.71,24.13,11.97,39.21,38.52,47.12,63.26,4.89,15.32,6.3,36.18-1.18,51.03-2,3.97-4.76,7.55-8.4,10.16-2.01,1.44-4.24,2.57-6.56,3.4-1.6.57-3.18.67-4.21,2.13-1.25,1.77.4,4.53,2.52,4.4,15.28-.98,30.58-1.24,45.88-.91,1.58.03,2.92-1.37,2.92-2.92,0-7.45,3.74-15.7,5.8-22.77,2.53-8.69,5.07-17.38,7.6-26.07,4.98-17.08,9.57-34.33,15.27-51.19,5.46-16.15,12.66-31.69,23.82-44.73,9.74-11.39,24.27-25.22,40.51-23.97,9.73.75,19.38,7.16,27.33,12.33,10.29,6.68,19.95,14.3,29.31,22.21,21.26,17.99,41.12,37.71,59.88,58.29,20.25,22.22,40.03,45.73,55.69,71.45,17.27,28.38,28.97,62.06,23.81,95.63-.59,3.81-1.4,7.6-2.43,11.31-.83,2.98-3.14,6.83-3.22,9.9-.07,2.68,2.87,4.81,4.46,6.73,2.94,3.56,5.71,7.26,8.37,11.03,9.95,14.12,18.71,29.04,26.96,44.21,4.12,7.57,8.17,15.19,12.41,22.7,3.53,6.25,6.98,12.99,12.1,18.13,4.74,4.76,11.35,7.1,17.29,10,6.39,3.13,12.79,6.29,18.83,10.07,12.95,8.13,25.16,19.28,33.45,32.17,8.17,12.69,13.41,26.94,18.69,40.99,5.33,14.19,10.49,29.11,19.31,41.58,4.45,6.29,9.92,11.69,15.64,16.83,5.18,4.66,10.61,9.24,17.14,11.88s12.17,2.28,18.71.37l-3.7-2.82c0,1.02-2.63,4.05-3.43,5.08-1.71,2.22-3.72,4.25-6,5.89-4.44,3.21-9.91,4.8-15.19,6.02-4.96,1.14-10.03,1.85-15.09,2.33-3.99.38-11.13,1.36-14.44-1.49-1.78-1.53-5.13-.64-4.99,2.07.61,11.93,11.06,24.07,22.12,27.9-.43-1.63-.86-3.26-1.29-4.88-2.67,2.71-8.04,4.38-12.05,5.3-14.54,3.34-28.46.73-41.68-5.74-13.33-6.53-24.44-15.83-31.1-29.31-5.06-10.24-7.28-21.74-8.71-32.99-.28-2.21-2.26-3.62-4.4-2.52-3.49,1.79-5.69,6.14-7.32,9.47-2.56,5.2-4.52,10.74-6.16,16.3-3.25,11.06-3.27,21.48,2.71,31.72,5.01,8.57,12.24,14.43,20.78,19.28,11.11,6.3,23.11,11.37,35.18,15.54l-1.75-4.29c.8-1.05-.78.91-.97,1.13-1.05,1.17-2.13,2.31-3.27,3.4-3.44,3.28-7.3,6.12-11.55,8.25-5.47,2.75-11.58,3.92-17.55,5.04-7.64,1.43-15.37,2.49-23.12,1.41-1.84-.26-3.7.72-3.7,2.82,0,20.89,5.4,39.83,14.07,58.7,9.23,20.09,19.11,40.18,23.94,61.89,4.8,21.59,4.27,44.35-6.18,64.24-9.87,18.77-21.81,36.58-39.2,49.13-8.91,6.43-18.8,11.51-29.29,14.83-9.66,3.05-22.62,6.57-32.08,1.33l.59,4.59c3.04-2.63,7.31-4.38,10.66-6.63,2.84-1.9,5.6-3.98,8.09-6.32,4.49-4.23,8.06-9.38,9.89-15.3,4.66-15.05,1.58-28.94-4.57-43.06-1.02-2.34-4.8-1.59-5.34.7-1.12,4.7-1.52,9.31-3.15,13.92-2.03,5.75-4.93,11.17-8.07,16.38-6.31,10.48-13.41,20.89-22.46,29.2-6.48,5.95-15.05,9.71-23.18,12.82-11.56,4.43-23.79,6.78-35.97,3.1l1.75,4.29c8.1-15.5,15.6-31.31,16.78-49.04.64-9.57-.59-19.18-3.17-28.41-.98-3.51-2.17-6.95-3.35-10.39-.9-2.63-1.35-5.57-3.62-7.38-2.02-1.61-4.77-.59-4.99,2.07-1.05,13.02-8.29,24.1-15.55,34.55-7.59,10.94-15.37,21.8-25.07,31-8.5,8.06-18.03,15.48-29.07,19.76-4.79,1.86-10.47,2.86-15.63,2.89-1.12,0-2.25-.21-3.36-.2-1.32.02-1.38-.98-.42.24l.46,3.54c2.82-5.26,3.92-12.6,4.69-18.41,1.25-9.41.08-20.27-4.28-28.76-.66-1.29-2.78-1.96-4-1.05-5.33,3.99-12.43,6.57-18.6,8.87-7.4,2.76-15.03,4.88-22.79,6.38-15.85,3.07-32.22,3.45-48.24,1.65-32.85-3.69-64.02-16.92-92.04-34.01-13.04-7.95-25.83-16.51-37.14-26.81-2.57-2.34-7.17-8.64-11.2-5.28-2.52,2.1-1.91,7.41-2.06,10.36-1.11,22.68-1.43,47.38,12.05,66.72,3.56,5.1,7.89,10.12,13.5,13.03,6.37,3.3,14.26,3.69,21.29,4.03,7.21.35,14.55-.4,21.76-.67l-2.52-1.45h0v-2.94c-4.63,8.71-11.31,16.79-19.29,22.72-11.35,8.43-27.24,8.63-40.73,8.69-3.76.02-3.77,5.86,0,5.84,15.25-.07,32.58-.71,45.11-10.57,3.53-2.78,6.83-6.07,9.96-9.28,1.72-1.76,3.24-3.75,4.68-5.74,1.72-2.38,7.27-8.51,5.32-11.67-.53-.86-1.49-1.49-2.52-1.45-6.29.24-12.6.62-18.89.72-11.94.19-22.46-1.61-30.26-11.09-15.14-18.39-14.68-43.31-13.65-65.91.08-1.82.54-3.95.32-5.75-.1-.86.76-2.53-.78-1.13-1.28,1.17.5,1.92,1.75,3.07,4.16,3.84,8.37,7.68,12.89,11.09,12.15,9.17,25.13,17.49,38.44,24.89,26.24,14.58,54.92,25.31,84.9,28.51,16.29,1.74,32.83,1.16,48.92-1.95,8.04-1.56,15.96-3.78,23.61-6.69,6.36-2.42,13.69-5.05,19.18-9.15l-4-1.05c3.99,7.78,4.76,18.18,3.3,26.76-.56,3.3-1.38,6.57-2.3,9.79-.34,1.19-.69,2.38-1.07,3.56-.06.2-.87,2.11-.35,1.15-.68,1.27-.38,2.47.46,3.54.97,1.23,3.48,1.38,4.85,1.53,4.67.5,9.48-.29,14.04-1.27,12.76-2.73,24.26-10.73,33.84-19.3,11.55-10.32,20.7-22.49,29.51-35.15,8.1-11.65,15.66-23.72,16.83-38.19l-4.99,2.07c1.68,1.34,2.2,5.02,2.88,7.02,1.05,3.08,2.06,6.17,2.9,9.31,2.4,8.94,3.34,18.14,2.53,27.37-1.4,15.99-8.53,30.41-15.85,44.43-.88,1.69-.12,3.73,1.75,4.29,12.25,3.7,24.99,1.99,36.8-2.25,8.7-3.13,18.07-6.95,25.33-12.81,10.36-8.37,18.25-20.03,25.17-31.26,3.16-5.13,6.06-10.44,8.32-16.04,2.3-5.68,2.99-11.28,4.38-17.14l-5.34.7c5.57,12.78,8.49,26.14,3.62,39.65-1.97,5.47-5.84,9.93-10.26,13.6-5.09,4.21-11.56,6.7-16.51,10.98-1.42,1.23-.97,3.72.59,4.59,7.94,4.41,17.31,3.67,25.93,1.99,9.86-1.92,19.43-5.44,28.32-10.09,18.45-9.67,33.22-24.39,44.22-41.95,6.06-9.67,12.22-19.68,15.81-30.58,3.51-10.67,4.65-22.1,4.11-33.3-1.09-22.81-9.02-44.33-18.2-64.99-5.43-12.21-11.87-24.15-16.22-36.8-4.39-12.78-6.43-25.93-6.43-39.43l-3.7,2.82c7.56,1.05,14.95.52,22.45-.73,7.24-1.2,14.67-2.53,21.37-5.65,7.43-3.46,14.27-9,19.24-15.53,1.22-1.61-.17-3.75-1.75-4.29-10.27-3.55-20.37-7.83-29.99-12.89-7.91-4.16-15.31-8.8-20.52-16.21-6.44-9.16-7.39-18.63-4.4-29.16,1.33-4.7,2.9-9.37,4.88-13.84,1.32-2.97,3.14-7.94,6.24-9.54l-4.4-2.52c1.56,12.33,3.94,24.71,9.51,35.94,7.38,14.88,20.02,25.2,34.85,32.19,14.05,6.63,28.65,9.01,43.99,5.67,5.13-1.12,11.35-3.04,15.18-6.93,1.62-1.64.76-4.17-1.29-4.88-8.45-2.92-17.36-13.11-17.83-22.26-1.66.69-3.33,1.38-4.99,2.07,3.86,3.32,9.93,3.64,14.76,3.48,7.09-.25,14.48-1.36,21.35-3.03,6.58-1.6,12.92-3.9,18.15-8.3,3.44-2.89,9.87-9.21,9.87-14.11,0-1.88-1.87-3.35-3.7-2.82-6.11,1.78-11.35,1.83-17.19-1.13-5.36-2.71-9.88-6.79-14.29-10.81-9.28-8.48-16.38-17.77-21.77-29.14-9.55-20.16-15.06-42.08-25.93-61.65-10.24-18.44-26.55-33.61-44.93-43.82-4.31-2.4-8.73-4.58-13.16-6.74-4.93-2.41-10.83-4.38-14.99-8.02s-6.77-8.41-9.44-13.02c-3.53-6.07-6.89-12.24-10.24-18.42-13.18-24.32-26.61-49.05-44.92-69.97l.75,2.84c1.2-4.66,3.18-9.09,4.26-13.83,1.12-4.89,1.86-9.87,2.29-14.86.9-10.44.25-20.96-1.45-31.28-3.44-20.86-11.76-40.56-22.51-58.66-19.36-32.63-45.24-62.08-71.48-89.35-23.67-24.6-49.01-49.18-77.88-67.66-10.45-6.69-22.82-14.08-35.72-12.19-19.22,2.81-35.13,19.84-45.63,35.01-13.96,20.18-20.2,44.38-26.98,67.63-3.66,12.55-7.32,25.11-10.98,37.66-1.82,6.25-3.64,12.51-5.49,18.75-1.42,4.78-3.34,10.18-3.34,15.23l2.92-2.92c-15.31-.33-30.6-.07-45.88.91l2.52,4.4c-1.17,1.67,1.01.46,1.87.12.97-.38,1.95-.8,2.89-1.25,2.08-1.02,4.02-2.29,5.82-3.75,3.47-2.82,6.28-6.39,8.35-10.35,3.93-7.52,5.42-16.08,5.82-24.48,1.04-21.62-5.83-42.58-16.76-61.12-11.69-19.83-30.17-38.57-53.48-43.4-22.1-4.58-45.64-.72-66.65,6.78-6.18,2.21-12.53,3.95-18.59,6.51s-12,5.71-17.81,8.9c-9.49,5.2-20.2,12.19-24.55,22.59-4.08,9.74-2.52,21.94,4.47,29.97,8.75,10.06,23.38,10.49,35.39,7.43,14.43-3.67,28.84-9.9,41.78-17.21,13.57-7.66,29.96-17.24,44.9-7.14,6.81,4.61,13.42,11,18.01,17.83s6.65,14.26,8.33,21.86c3.02,13.68,1.02,25.83-3.05,38.97-.58,1.89-1.2,3.77-1.83,5.64-.91,2.66-2.01,3.44-4.85,1.57-5.91-3.89-7.2-12.71-10.44-18.56-6.46-11.66-17.19-21.01-28.83-27.29s-23.47-7.88-36.49-5.99c-8.2,1.19-20.93,4.76-24.67,13.13-4,8.95-1.58,20.45,6.29,26.35,4.88,3.66,10.86,5.35,16.75,6.54,8.3,1.69,16.72,2.81,25.11,3.95,7.89,1.07,15.79,2.12,23.62,3.61,3.79.72,7.57,1.54,11.31,2.5,2.26.58,3.99,1.79,5.64.15,2.4-2.39.8-.84.29-.96-1.67-.38-5.63,1.62-7.24,2.08l-11.55,3.32c-5.78,1.66-11.67,3.12-17.38,4.99s-11.17,4.99-16.46,7.85c-17.68,9.54-35.08,19.93-51.62,31.33-2.8,1.93-5.58,3.89-8.24,6.02-1.9,1.52-3.68,3.17-5.4,4.89-1.25,1.26-2.46,2.57-3.7,3.84-.72.74-4.24,3.98-3.19,3.85,1.17-.15-1.46-1.66-2.3-2.31-1.43-1.12-2.89-2.22-4.37-3.28-2.97-2.12-6.03-4.11-9.17-5.97-5.75-3.4-11.75-6.35-17.91-8.94-26.88-11.32-56.37-15.92-85.18-19.25-31.61-3.65-64.3-4.07-95.02,5.33-7.25,2.22-14.33,4.97-21.2,8.18-3.33,1.56-6.61,3.23-9.82,5.02-2.77,1.54-6.8,3.1-8.76,5.71-2.59,3.46-1.89,10.4-1.87,14.44.04,6.68,1.73,13.38,2.96,19.92,6.23,32.98,15.35,65.18,26.41,96.85,9.73,27.88,19.38,56.99,38.69,79.92,8.45,10.04,18.7,18.52,30.63,24.07l-1.45-2.52.02.13,1.45-2.52c-21.64,10.44-35.86,29.12-46.94,49.89-5.99,11.23-10.51,23.5-17.64,34.07s-16.62,17.43-26.61,24.04c-10.96,7.26-22.2,15.54-35.93,15.17-6.43-.17-12.88-1.24-19.27-1.99-3.65-.43-8.21-1.97-10.38,1.88-3.61,6.39,4.21,15.64,7.96,20.13,6.66,7.96,16.09,13.24,25.66,16.96,6.89,2.68,16.21,3.98,23.34,1.93,4.84-1.39,9.36-3.95,13.68-6.48,2.72-1.59,7.81-6.13,10.92-5.99l-2.52-1.45c1.43,1.96,1.51,6.01,1.78,8.31.43,3.64.1,7.39-1.01,10.89-2.02,6.35-6.79,12.49-11.57,17.06-4.25,4.07-16.77,9.05-15.86,16.32.45,3.56,3.97,4.96,6.98,5.92,6.53,2.08,13.27.37,19.79-1,12.8-2.69,24.47-6.43,35.26-14.03l-4.29-3.3c-2.52,10.93-4.7,21.61-8.21,32.32-3.75,11.44-7.63,22.81-9.81,34.68-4.45,24.19-4.8,49.89-3.84,74.41.88,22.76,7.23,43.2,21,61.48,6.34,8.41,13.57,16.09,21.12,23.41,3.75,3.63,7.47,7.49,11.51,10.8,1.81,1.48,5.16,3.57,7.57,1.97,3.67-2.43.35-6.53-.85-9.24-2.6-5.88-2.99-11.98-2.52-18.31,1.06-14.26,12.15-26.08,20.97-36.46l-4.59-.59c1.04,1.52-.3,7.78-.28,9.98.04,4.11.4,8.23,1.24,12.25,1.59,7.62,5.09,14.82,8.81,21.6,6.36,11.57,15.96,23.61,27.95,29.74,9.31,4.77,21.42,10.04,32.16,8.67,3.55-.45,8.18-1.7,7.25-6.31-.39-1.94-1.96-3.16-3.11-4.63-6.24-7.96-6.3-20.65-4.87-30.08.36-2.35.74-4.73,1.37-7.03.55-2,1.91-3.79,2.43-5.71.32-1.19,1.56-.91-.02-1.56s-.54.21-.6,1.04c-.16,2.15,1.05,5.13,1.5,7.26.68,3.22,1.37,6.43,2.08,9.63,2.87,12.87,5.89,25.67,12.62,37.15,7.31,12.46,17.55,22.77,30.2,29.75,15.45,8.52,32.99,12.78,50.57,13.44,9.75.37,19.51-.4,29.15-1.93,4.86-.77,9.69-1.76,14.48-2.92,3.1-.76,5.12-1.21,7.05-3.77,1.12-1.49-.06-3.91-1.75-4.29-13.57-3.11-23.6-11.94-30.29-23.94-1.62-2.91-3.14-5.94-4.26-9.09-.56-1.57-.79-3.59-1.46-5.09l-.3-1.56c-1.7-.73-2.08-.79-1.15-.19.8,1.53,4.49,3.23,5.91,4.26,2.15,1.55,4.31,3.1,6.46,4.64,18.59,13.31,40.15,22.67,63.38,22.99,3.76.05,3.76-5.79,0-5.84Z"/>
</svg>