<svg viewBox="0 0 115.992 100" xmlns="http://www.w3.org/2000/svg" xmlns:xlink="http://www.w3.org/1999/xlink" width="115.992188" height="100.000000" fill="none" customFrame="#000000">
	<defs>
		<linearGradient id="paint_linear_0" x1="32.8355751" x2="95.6460495" y1="99.047966" y2="29.9767456" gradientUnits="userSpaceOnUse">
			<stop stop-color="rgb(9,219,240)" offset="0" stop-opacity="1" />
			<stop stop-color="rgb(11,35,169)" offset="1" stop-opacity="1" />
		</linearGradient>
	</defs>
	<g id="组合 50">
		<path id="矢量 54" d="M61.5516 27.4763L61.5431 41.4807C61.598 60.5922 46.1339 76.1838 27.2382 76.1546C19.7326 76.1402 12.8998 73.8349 7.36133 69.8043C17.3007 87.8129 36.3556 99.9796 58.0159 100C89.4831 99.9834 115.485 74.163 115.969 42.4136L115.962 42.2812C115.991 41.5497 115.957 28.0121 115.992 27.413C115.947 12.3493 103.727 -0.0341264 88.7851 6.58146e-05C73.7735 -0.028574 61.4992 12.2803 61.5516 27.4763Z" fill="url(#paint_linear_0)" fill-rule="nonzero" />
		<path id="矢量 55" d="M27.2062 14.0916C12.205 14.0916 0 26.396 0 41.5203C0 56.6429 12.205 68.9474 27.2062 68.9474C42.2081 68.9474 54.4124 56.6429 54.4124 41.5203C54.4124 26.396 42.2081 14.0916 27.2062 14.0916Z" fill="rgb(11,35,169)" fill-rule="nonzero" />
	</g>
</svg>
